<?xml version="1.0" standalone="no"?>
<!DOCTYPE svg PUBLIC "-//W3C//DTD SVG 20010904//EN"
 "http://www.w3.org/TR/2001/REC-SVG-20010904/DTD/svg10.dtd">
<svg version="1.0" xmlns="http://www.w3.org/2000/svg"
 width="1504.000000pt" height="1504.000000pt" viewBox="0 0 1504.000000 1504.000000"
 preserveAspectRatio="xMidYMid meet">
<metadata>
Created by potrace 1.14, written by Peter Selinger 2001-2017
</metadata>
<g transform="translate(0.000000,1504.000000) scale(0.100000,-0.100000)"
fill="#000000" stroke="none">
<path d="M7108 15025 c-2 -2 -88 -6 -193 -10 -104 -3 -221 -8 -260 -10 -38 -3
-106 -7 -150 -10 -161 -10 -241 -16 -285 -20 -25 -2 -76 -7 -115 -10 -38 -3
-95 -8 -125 -11 -62 -5 -272 -27 -375 -40 -22 -3 -56 -7 -75 -9 -61 -7 -274
-36 -310 -42 -40 -6 -60 -9 -115 -17 -69 -10 -337 -55 -415 -71 -41 -8 -88
-16 -105 -19 -16 -3 -61 -12 -98 -21 -37 -8 -82 -17 -100 -20 -18 -3 -40 -8
-49 -11 -18 -5 -45 -11 -93 -20 -16 -2 -120 -28 -230 -55 -110 -28 -207 -52
-215 -54 -64 -14 -438 -127 -581 -175 -266 -90 -572 -206 -744 -285 -33 -15
-85 -39 -115 -52 -155 -71 -396 -194 -515 -263 -22 -12 -60 -34 -85 -48 -142
-79 -428 -277 -545 -376 -125 -106 -123 -104 -130 -159 -4 -29 -8 -63 -10 -77
-2 -14 -6 -54 -10 -90 -3 -36 -8 -72 -10 -80 -2 -8 -6 -49 -10 -90 -3 -41 -7
-86 -10 -100 -2 -14 -7 -56 -10 -95 -3 -38 -7 -88 -10 -110 -2 -22 -7 -71 -10
-110 -3 -38 -8 -92 -10 -120 -2 -27 -7 -88 -10 -135 -3 -47 -8 -119 -10 -160
-21 -309 -29 -567 -29 -1005 0 -411 9 -724 29 -990 3 -44 8 -111 10 -150 3
-38 7 -92 9 -120 12 -125 17 -183 21 -215 2 -19 7 -68 11 -109 3 -41 7 -82 9
-90 2 -9 6 -45 10 -81 3 -36 8 -72 10 -80 2 -8 7 -44 10 -80 3 -36 8 -72 10
-80 2 -8 7 -39 10 -69 4 -30 9 -63 11 -75 2 -12 7 -39 10 -61 2 -22 7 -52 9
-67 3 -16 7 -41 10 -58 3 -16 7 -43 10 -60 3 -16 7 -45 10 -62 5 -29 30 -165
41 -223 2 -11 11 -54 19 -95 8 -41 17 -86 20 -100 3 -14 7 -36 10 -50 3 -14 7
-36 10 -50 15 -78 108 -461 149 -615 2 -5 6 -23 10 -40 46 -179 198 -665 275
-880 209 -579 480 -1190 715 -1614 25 -46 46 -85 46 -86 0 -1 25 -47 56 -101
31 -55 67 -117 79 -139 70 -123 234 -388 344 -553 155 -236 410 -593 538 -752
24 -30 50 -62 56 -70 13 -17 83 -104 108 -135 58 -71 258 -306 285 -335 18
-19 42 -46 54 -60 169 -197 668 -695 920 -919 282 -250 389 -340 615 -516 21
-16 61 -48 89 -70 28 -22 61 -47 72 -55 12 -8 93 -67 180 -131 88 -64 227
-162 309 -217 83 -56 155 -105 160 -110 11 -8 126 -81 273 -170 123 -76 409
-242 416 -242 4 0 25 -11 47 -25 78 -50 456 -235 479 -235 47 0 665 330 939
501 51 33 97 59 102 59 5 0 9 4 9 8 0 5 11 14 25 20 88 40 879 597 921 648 6
8 16 14 22 14 6 0 12 3 14 8 2 4 48 43 103 86 88 71 342 282 355 296 3 3 38
35 79 70 41 36 82 72 91 80 525 484 981 968 1321 1402 27 35 55 70 62 78 8 8
34 42 58 75 24 33 46 62 49 65 3 3 17 21 30 40 13 19 27 37 31 40 14 10 248
343 359 510 104 156 308 482 362 579 11 20 51 90 88 156 373 660 702 1417 935
2150 55 172 156 517 170 575 1 8 17 69 34 135 17 66 33 129 35 140 3 11 20 88
40 171 19 84 37 163 40 175 90 463 95 490 101 534 2 11 6 35 9 53 8 42 11 65
31 197 9 61 19 121 21 135 2 14 7 48 9 75 3 28 7 61 10 74 2 13 7 49 10 80 4
31 8 67 11 81 2 14 6 54 9 90 3 36 8 76 10 90 2 14 6 54 10 90 3 36 8 85 10
110 3 25 7 81 10 125 3 44 8 105 10 135 9 109 24 384 30 560 5 124 5 885 0
1025 -4 121 -10 264 -19 445 -5 87 -15 233 -21 305 -2 28 -7 86 -10 130 -3 44
-8 96 -10 115 -2 19 -7 64 -10 100 -3 36 -8 83 -10 105 -2 22 -7 67 -10 100
-3 33 -8 76 -10 95 -4 32 -16 128 -31 260 -8 66 -12 72 -89 139 -261 229 -703
499 -1170 716 -344 160 -883 359 -1230 456 -16 4 -64 17 -105 29 -275 77 -830
207 -962 225 -15 2 -35 6 -45 9 -10 3 -36 8 -58 11 -23 3 -52 8 -65 11 -47 9
-125 23 -165 29 -23 3 -52 8 -65 10 -14 3 -43 7 -65 10 -22 3 -51 7 -65 10
-14 3 -45 8 -70 11 -25 3 -56 7 -70 10 -14 2 -45 6 -70 9 -25 3 -58 8 -75 10
-16 3 -50 7 -75 10 -62 7 -128 15 -170 20 -19 2 -62 7 -95 10 -33 3 -73 8 -90
10 -16 2 -66 7 -110 10 -44 4 -93 8 -110 10 -28 4 -64 7 -265 20 -47 4 -107 8
-135 10 -27 2 -104 7 -170 10 -66 3 -167 8 -225 11 -117 6 -1027 14 -1032 9z"/>
</g>
</svg>
